<svg xmlns="http://www.w3.org/2000/svg" width="21" height="18" viewBox="0 0 21 18"><g><g><g><path fill="#fff" d="M7.387 11.975a1.417 1.417 0 1 0 0-2.835 1.417 1.417 0 0 0 0 2.835z"/></g><g><path fill="#fff" d="M19.545 10.699c-.262-1.25-1.04-2.382-2.182-3.287.193-.065.394-.11.607-.11 1.106 0 2.007.944 2.007 2.105a2.162 2.162 0 0 1-.432 1.292zm-8.972 6.238c-4.414 0-8.003-2.38-8.003-5.307 0-2.927 3.59-5.307 8.003-5.307 4.412 0 8.001 2.38 8.001 5.307 0 2.926-3.589 5.307-8.001 5.307zM3.074 7.303c.242 0 .47.052.685.135-1.16.928-1.94 2.092-2.175 3.377a2.156 2.156 0 0 1-.519-1.408c0-1.16.902-2.104 2.01-2.104zM16.97 1.429c.73 0 1.325.594 1.325 1.325a1.326 1.326 0 1 1-1.325-1.326zm4.065 7.979c0-1.751-1.379-3.176-3.074-3.176-.594 0-1.146.18-1.616.481-1.458-.846-3.297-1.372-5.305-1.444l1.157-3.323 2.398.574c-.008.08-.024.155-.024.237a2.4 2.4 0 0 0 2.398 2.396 2.4 2.4 0 0 0 2.397-2.396A2.4 2.4 0 0 0 16.969.36c-.862 0-1.612.46-2.034 1.143l-3.428-.82-1.6 4.592c-1.998.103-3.818.66-5.248 1.53.028-.02.053-.043.082-.063a2.991 2.991 0 0 0-1.668-.51C1.378 6.231 0 7.654 0 9.406a3.18 3.18 0 0 0 1.541 2.736c.376 3.275 4.28 5.86 9.033 5.86 4.784 0 8.707-2.62 9.04-5.924a3.193 3.193 0 0 0 1.42-2.671z"/></g><g><path fill="#fff" d="M13.477 11.975a1.417 1.417 0 1 0 0-2.835 1.417 1.417 0 0 0 0 2.835z"/></g><g><path fill="#fff" d="M13.25 13.708c-3.003 1.982-5.425.115-5.533.03a.532.532 0 1 0-.669.83c.02.018 1.404 1.106 3.414 1.106 1 0 2.155-.27 3.375-1.075a.534.534 0 0 0-.587-.89z"/></g></g></g></svg>