<svg xmlns="http://www.w3.org/2000/svg" width="22" height="18" viewBox="0 0 22 18"><g><g><path fill="#fff" d="M6.919 18C15.22 18 19.76 11.074 19.76 5.068c0-.196 0-.392-.013-.587A9.22 9.22 0 0 0 22 2.128a8.961 8.961 0 0 1-2.592.715A4.555 4.555 0 0 0 21.392.33a9.008 9.008 0 0 1-2.866 1.103 4.495 4.495 0 0 0-5.423-.895 4.56 4.56 0 0 0-2.27 5.04A12.785 12.785 0 0 1 1.532.829 4.567 4.567 0 0 0 2.93 6.896 4.457 4.457 0 0 1 .88 6.328v.057a4.539 4.539 0 0 0 3.621 4.455 4.476 4.476 0 0 1-2.038.078 4.523 4.523 0 0 0 4.217 3.157A9.017 9.017 0 0 1 0 15.958a12.715 12.715 0 0 0 6.919 2.038"/></g></g></svg>