<svg xmlns="http://www.w3.org/2000/svg" width="25" height="25" viewBox="0 0 25 25"><g><g><path fill="none" stroke="#2f3144" stroke-linecap="round" stroke-linejoin="round" stroke-miterlimit="20" stroke-width="2" d="M2.838 6.463v0h3.625c.668 0 1.209-.54 1.209-1.208V4.047a2.417 2.417 0 1 1 4.833 0v1.208c0 .667.541 1.208 1.208 1.208h3.625c.668 0 1.209.541 1.209 1.209v3.625c0 .667.54 1.208 1.208 1.208h1.208a2.417 2.417 0 1 1 0 4.833h-1.208c-.667 0-1.208.541-1.208 1.209v3.625c0 .667-.541 1.208-1.209 1.208h-3.625a1.208 1.208 0 0 1-1.208-1.208v-1.209a2.417 2.417 0 0 0-4.833 0v1.209c0 .667-.541 1.208-1.209 1.208H2.838a1.208 1.208 0 0 1-1.208-1.208v-3.625c0-.668.541-1.209 1.208-1.209h1.209a2.417 2.417 0 0 0 0-4.833H2.838a1.208 1.208 0 0 1-1.208-1.208V7.672c0-.668.541-1.209 1.208-1.209"/></g></g></svg>