<svg xmlns="http://www.w3.org/2000/svg" width="30" height="31" viewBox="0 0 30 31"><g><g><g><path fill="#4285f4" d="M30.003 15.649c0-1.258-.102-2.177-.323-3.129H15.31v5.68h8.435c-.17 1.411-1.089 3.537-3.13 4.965l-.028.19 4.544 3.52.314.032c2.891-2.67 4.558-6.598 4.558-11.258"/></g><g><path fill="#34a853" d="M15.303 30.608c4.132 0 7.601-1.36 10.135-3.707l-4.83-3.741c-1.292.9-3.027 1.53-5.305 1.53-4.048 0-7.483-2.67-8.707-6.36l-.18.015-4.724 3.656-.062.172c2.517 5 7.687 8.435 13.673 8.435"/></g><g><path fill="#fbbc05" d="M6.598 18.332a9.422 9.422 0 0 1-.51-3.027c0-1.055.187-2.075.493-3.027l-.008-.203L1.789 8.36l-.156.074A15.32 15.32 0 0 0 0 15.304c0 2.467.595 4.796 1.633 6.871l4.965-3.843"/></g><g><path fill="#eb4335" d="M15.303 5.918c2.873 0 4.812 1.241 5.918 2.279l4.319-4.218C22.887 1.514 19.435 0 15.303 0 9.317 0 4.147 3.435 1.63 8.435l4.949 3.843c1.241-3.69 4.676-6.36 8.724-6.36"/></g></g></g></svg>