<?xml version="1.0" standalone="no"?>
<!DOCTYPE svg PUBLIC "-//W3C//DTD SVG 20010904//EN"
 "http://www.w3.org/TR/2001/REC-SVG-20010904/DTD/svg10.dtd">
<svg version="1.0" xmlns="http://www.w3.org/2000/svg"
 width="512.000000pt" height="512.000000pt" viewBox="0 0 512.000000 512.000000"
 preserveAspectRatio="xMidYMid meet">
<metadata>
Created by potrace 1.16, written by Peter Selinger 2001-2019
</metadata>
<g transform="translate(0.000000,512.000000) scale(0.100000,-0.100000)"
fill="#000000" stroke="none">
<path d="M2231 5104 c-452 -58 -884 -238 -1251 -522 -117 -91 -316 -287 -413
-407 -279 -346 -470 -769 -535 -1191 -31 -197 -35 -251 -20 -257 7 -2 294
-121 638 -262 344 -142 649 -267 678 -278 l53 -20 87 41 c90 42 206 72 289 73
l48 0 313 455 312 456 0 56 c0 76 31 221 65 307 111 281 360 506 647 585 226
62 470 39 683 -65 276 -133 468 -386 531 -696 25 -122 15 -322 -21 -444 -118
-399 -458 -675 -864 -704 l-96 -7 -447 -319 -447 -320 -1 -56 c0 -72 -32 -198
-70 -275 -67 -137 -185 -255 -325 -324 -105 -52 -186 -70 -315 -70 -130 0
-196 16 -320 77 -78 38 -109 60 -175 127 -91 93 -134 160 -174 272 l-27 78
-479 198 c-263 109 -481 196 -483 194 -7 -7 37 -133 90 -256 126 -295 290
-540 523 -779 363 -372 810 -618 1312 -721 333 -69 719 -68 1058 1 653 135
1244 542 1618 1114 210 321 344 690 392 1075 20 162 20 477 0 640 -92 742
-510 1412 -1140 1826 -329 216 -695 350 -1085 399 -153 19 -501 18 -649 -1z"/>
<path d="M3262 3835 c-320 -70 -545 -389 -502 -713 32 -242 189 -442 414 -527
343 -129 728 58 842 409 21 65 27 102 28 186 1 125 -13 187 -66 299 -80 167
-259 308 -443 346 -86 18 -189 18 -273 0z m240 -156 c250 -52 424 -308 379
-557 -24 -133 -107 -259 -219 -331 -273 -175 -647 -27 -732 289 -18 67 -14
195 8 267 74 237 321 382 564 332z"/>
<path d="M1740 2113 c-55 -4 -140 -24 -140 -32 0 -5 53 -30 118 -56 263 -108
317 -143 380 -247 121 -202 38 -469 -178 -572 -60 -29 -73 -31 -170 -31 l-105
0 -173 73 c-96 40 -176 71 -178 69 -10 -10 82 -130 129 -168 66 -53 174 -104
251 -118 177 -33 350 23 481 154 173 173 212 420 99 635 -65 124 -164 212
-292 260 -58 22 -159 37 -222 33z"/>
</g>
</svg>
