<svg xmlns="http://www.w3.org/2000/svg" width="31" height="25" viewBox="0 0 31 25"><g><g><path fill="#5da8dc" d="M20.134 1.005V1h1.343l.49.098c.327.064.624.147.891.25.267.104.525.224.775.362.25.138.476.278.679.421.201.141.382.29.542.45.159.16.406.2.741.123a9.915 9.915 0 0 0 1.085-.323c.387-.137.77-.292 1.149-.464.379-.172.61-.282.692-.328l.129-.078.005-.007.026-.013.026-.013.026-.013.025-.013.006-.008.007-.005.008-.005.005-.008.026-.008.026-.005-.005.039-.008.039-.013.038-.013.04-.013.025-.013.026-.013.038a.9.9 0 0 0-.025.104c-.009.043-.09.215-.246.516a6.458 6.458 0 0 1-.58.917c-.233.31-.441.544-.626.702-.185.16-.309.272-.369.336-.06.065-.133.126-.22.18l-.128.086-.026.013-.026.013-.005.007-.008.006-.008.005-.005.007-.026.013-.026.013-.005.008-.007.005-.008.005-.005.008-.006.008-.007.005-.008.005-.005.008h.129l.723-.155c.482-.103.942-.228 1.381-.374l.698-.233.077-.026.039-.013.026-.012.025-.013.026-.013.026-.013.052-.008.051-.005v.052l-.013.005-.012.007-.006.008-.007.005-.008.006-.005.007-.005.008-.008.005-.008.005-.005.008-.005.008-.008.005-.013.026-.013.026-.008.005-.328.439c-.215.289-.33.435-.348.439-.017.005-.041.03-.072.077-.03.048-.212.24-.548.576-.336.336-.664.634-.986.896-.324.263-.487.587-.49.971a22.66 22.66 0 0 1-.06 1.296 16.414 16.414 0 0 1-.194 1.562c-.095.56-.24 1.193-.439 1.898a17.254 17.254 0 0 1-.723 2.066 16.093 16.093 0 0 1-.89 1.808c-.31.533-.595.985-.853 1.355s-.52.719-.787 1.046c-.267.327-.605.696-1.013 1.105-.41.408-.633.632-.671.672-.04.037-.208.179-.506.423a17.76 17.76 0 0 1-.956.739c-.339.244-.65.448-.934.612-.284.163-.627.35-1.028.56-.4.212-.831.408-1.296.589-.465.18-.956.348-1.472.503-.516.155-1.016.276-1.498.362-.482.086-1.028.159-1.64.22l-.916.09v.012H9.186v-.012l-.22-.013a11.773 11.773 0 0 1-.361-.026 43.137 43.137 0 0 1-1.072-.142 15.47 15.47 0 0 1-1.459-.258c-.353-.087-.878-.25-1.575-.491a15.326 15.326 0 0 1-1.79-.73c-.494-.245-.804-.4-.93-.466a6.596 6.596 0 0 1-.417-.237l-.233-.142-.005-.008-.008-.005-.008-.005-.005-.008-.026-.013-.025-.013-.005-.008-.008-.005-.008-.005-.005-.008-.005-.007-.008-.006H1v-.051l.026.005.026.008.116.013c.077.008.288.021.632.038a11.653 11.653 0 0 0 2.286-.116c.404-.06.882-.163 1.433-.31.55-.146 1.057-.32 1.518-.521.46-.203.787-.355.981-.455.193-.098.488-.28.883-.547l.594-.4.006-.008.007-.005.008-.006.005-.007.005-.008.008-.005.008-.005.005-.008.026-.008.026-.005.005-.026.008-.026.007-.005.005-.008-.206-.012a96.816 96.816 0 0 1-.4-.026 3.881 3.881 0 0 1-.607-.116 5.825 5.825 0 0 1-.891-.31 6.867 6.867 0 0 1-.93-.491 4.575 4.575 0 0 1-.653-.472c-.132-.124-.305-.3-.516-.527a5.225 5.225 0 0 1-.548-.705 6.334 6.334 0 0 1-.444-.834l-.214-.47-.013-.039-.013-.039-.008-.025-.005-.026.039.005.039.008.284.038c.189.026.486.035.89.026.405-.008.685-.026.84-.051.155-.026.25-.044.284-.052l.051-.013.065-.013.064-.013.006-.008.007-.005.008-.005.005-.008-.051-.013-.052-.012-.052-.013-.051-.013-.052-.013a4.755 4.755 0 0 1-.18-.052 9.9 9.9 0 0 1-.698-.284 5.332 5.332 0 0 1-.904-.478 6.242 6.242 0 0 1-.64-.508 7.308 7.308 0 0 1-.664-.718 5.165 5.165 0 0 1-.645-1.02 6.203 6.203 0 0 1-.426-1.11 5.996 5.996 0 0 1-.186-1.072L2.11 9.16l.026.005.026.008.026.013.026.012.025.013.026.013.4.181c.267.12.599.224.995.31s.632.133.71.142l.116.013h.232l-.005-.008-.008-.005-.007-.005-.005-.008-.006-.008-.007-.005-.008-.005-.005-.008-.026-.013-.026-.013-.005-.007-.008-.006-.008-.005-.005-.007-.026-.013-.025-.013-.006-.008-.222-.165a3.386 3.386 0 0 1-.444-.421c-.155-.172-.31-.353-.465-.542a4.187 4.187 0 0 1-.413-.607 7.354 7.354 0 0 1-.382-.821 5.829 5.829 0 0 1-.418-1.994 6.26 6.26 0 0 1 .026-.84c.025-.231.077-.494.155-.787.077-.292.189-.602.335-.93l.22-.49.013-.039.013-.038.007-.005.005-.008.006-.008.007-.005.008.005.005.008.005.008.008.005.008.005.005.008.005.007.008.006.013.025.013.026.008.005.005.008.348.387c.233.259.508.547.827.865.318.319.495.484.529.496a.378.378 0 0 1 .13.119c.05.064.223.216.516.457.292.241.675.52 1.149.84.473.318.998.632 1.575.942.576.31 1.196.59 1.859.839a22.4 22.4 0 0 0 1.394.49c.267.078.723.177 1.369.298.645.12 1.132.197 1.459.232.327.034.55.054.671.06l.18.004-.004-.038-.008-.039-.052-.323a6.068 6.068 0 0 1-.051-.904c0-.387.03-.744.09-1.071.06-.327.15-.659.271-.994.12-.336.239-.605.354-.809.117-.2.27-.43.46-.689.189-.258.434-.525.735-.8a5.43 5.43 0 0 1 1.033-.736 6.715 6.715 0 0 1 1.072-.491c.327-.112.602-.185.826-.22a2.87 2.87 0 0 0 .336-.059z"/><path fill="none" stroke="#5da8dc" stroke-miterlimit="20" stroke-width="1.36" d="M20.134 1.005V1v0h1.343v0l.49.098c.327.064.624.147.891.25.267.104.525.224.775.362.25.138.476.278.679.421.201.141.382.29.542.45.159.16.406.2.741.123a9.915 9.915 0 0 0 1.085-.323c.387-.137.77-.292 1.149-.464.379-.172.61-.282.692-.328l.129-.078.005-.007v0l.026-.013v0l.026-.013v0l.026-.013v0l.025-.013v0l.006-.008v0l.007-.005v0l.008-.005v0l.005-.008v0l.026-.008v0l.026-.005v0l-.005.039v0l-.008.039v0l-.013.038v0l-.013.04v0l-.013.025v0l-.013.026v0l-.013.038a.9.9 0 0 0-.025.104c-.009.043-.09.215-.246.516a6.458 6.458 0 0 1-.58.917c-.233.31-.441.544-.626.702-.185.16-.309.272-.369.336-.06.065-.133.126-.22.18l-.128.086v0l-.026.013v0l-.026.013v0l-.005.007v0l-.008.006v0l-.008.005v0l-.005.007v0l-.026.013v0l-.026.013v0l-.005.008v0l-.007.005v0l-.008.005v0l-.005.008v0l-.006.008v0l-.007.005v0l-.008.005v0l-.005.008v0h.129v0l.723-.155c.482-.103.942-.228 1.381-.374l.698-.233v0l.077-.026v0l.039-.013v0l.026-.012v0l.025-.013v0l.026-.013v0l.026-.013v0l.052-.008v0l.051-.005v.052l-.013.005v0l-.012.007v0l-.006.008v0l-.007.005v0l-.008.006v0l-.005.007v0l-.005.008v0l-.008.005v0l-.008.005v0l-.005.008v0l-.005.008v0l-.008.005v0l-.013.026v0l-.013.026v0l-.008.005-.328.439c-.215.289-.33.435-.348.439-.017.005-.041.03-.072.077-.03.048-.212.24-.548.576-.336.336-.664.634-.986.896-.324.263-.487.587-.49.971a22.66 22.66 0 0 1-.06 1.296 16.414 16.414 0 0 1-.194 1.562c-.095.56-.24 1.193-.439 1.898a17.254 17.254 0 0 1-.723 2.066 16.093 16.093 0 0 1-.89 1.808c-.31.533-.595.985-.853 1.355s-.52.719-.787 1.046c-.267.327-.605.696-1.013 1.105-.41.408-.633.632-.671.672-.04.037-.208.179-.506.423a17.76 17.76 0 0 1-.956.739c-.339.244-.65.448-.934.612-.284.163-.627.35-1.028.56-.4.212-.831.408-1.296.589-.465.18-.956.348-1.472.503-.516.155-1.016.276-1.498.362-.482.086-1.028.159-1.64.22l-.916.09v.012H9.186v0-.012 0l-.22-.013a11.773 11.773 0 0 1-.361-.026 43.137 43.137 0 0 1-1.072-.142 15.47 15.47 0 0 1-1.459-.258c-.353-.087-.878-.25-1.575-.491a15.326 15.326 0 0 1-1.79-.73c-.494-.245-.804-.4-.93-.466a6.596 6.596 0 0 1-.417-.237l-.233-.142v0l-.005-.008v0l-.008-.005v0l-.008-.005v0l-.005-.008v0l-.026-.013v0l-.025-.013v0l-.005-.008v0l-.008-.005v0l-.008-.005v0l-.005-.008v0l-.005-.007v0l-.008-.006v0H1v0-.051 0l.026.005v0l.026.008v0l.116.013c.077.008.288.021.632.038a11.653 11.653 0 0 0 2.286-.116c.404-.06.882-.163 1.433-.31.55-.146 1.057-.32 1.518-.521.46-.203.787-.355.981-.455.193-.098.488-.28.883-.547l.594-.4v0l.006-.008v0l.007-.005v0l.008-.006v0l.005-.007v0l.005-.008v0l.008-.005v0l.008-.005v0l.005-.008v0l.026-.008v0l.026-.005v0l.005-.026v0l.008-.026v0l.007-.005v0l.005-.008v0l-.206-.012a96.816 96.816 0 0 1-.4-.026 3.881 3.881 0 0 1-.607-.116 5.825 5.825 0 0 1-.891-.31 6.867 6.867 0 0 1-.93-.491 4.575 4.575 0 0 1-.653-.472c-.132-.124-.305-.3-.516-.527a5.225 5.225 0 0 1-.548-.705 6.334 6.334 0 0 1-.444-.834l-.214-.47v0l-.013-.039v0l-.013-.039v0l-.008-.025v0l-.005-.026v0l.039.005v0l.039.008v0l.284.038c.189.026.486.035.89.026.405-.008.685-.026.84-.051.155-.026.25-.044.284-.052l.051-.013v0l.065-.013v0l.064-.013v0l.006-.008v0l.007-.005v0l.008-.005v0l.005-.008v0l-.051-.013v0l-.052-.012v0l-.052-.013v0l-.051-.013v0l-.052-.013a4.755 4.755 0 0 1-.18-.052 9.9 9.9 0 0 1-.698-.284 5.332 5.332 0 0 1-.904-.478 6.242 6.242 0 0 1-.64-.508 7.308 7.308 0 0 1-.664-.718 5.165 5.165 0 0 1-.645-1.02 6.203 6.203 0 0 1-.426-1.11 5.996 5.996 0 0 1-.186-1.072L2.11 9.16v0l.026.005v0l.026.008v0l.026.013v0l.026.012v0l.025.013v0l.026.013v0l.4.181c.267.12.599.224.995.31s.632.133.71.142l.116.013v0h.232v0l-.005-.008v0l-.008-.005v0l-.007-.005v0l-.005-.008v0l-.006-.008v0l-.007-.005v0l-.008-.005v0l-.005-.008v0l-.026-.013v0l-.026-.013v0l-.005-.007v0l-.008-.006v0l-.008-.005v0l-.005-.007v0l-.026-.013v0l-.025-.013v0l-.006-.008-.222-.165a3.386 3.386 0 0 1-.444-.421c-.155-.172-.31-.353-.465-.542a4.187 4.187 0 0 1-.413-.607 7.354 7.354 0 0 1-.382-.821 5.829 5.829 0 0 1-.418-1.994 6.26 6.26 0 0 1 .026-.84c.025-.231.077-.494.155-.787.077-.292.189-.602.335-.93l.22-.49v0l.013-.039v0l.013-.038v0l.007-.005v0l.005-.008v0l.006-.008v0l.007-.005v0l.008.005v0l.005.008v0l.005.008v0l.008.005v0l.008.005v0l.005.008v0l.005.007v0l.008.006v0l.013.025v0l.013.026v0l.008.005v0l.005.008v0l.348.387c.233.259.508.547.827.865.318.319.495.484.529.496a.378.378 0 0 1 .13.119c.05.064.223.216.516.457.292.241.675.52 1.149.84.473.318.998.632 1.575.942.576.31 1.196.59 1.859.839a22.4 22.4 0 0 0 1.394.49c.267.078.723.177 1.369.298.645.12 1.132.197 1.459.232.327.034.55.054.671.06l.18.004v0l-.004-.038v0L15.06 8.1v0l-.052-.323a6.068 6.068 0 0 1-.051-.904c0-.387.03-.744.09-1.071.06-.327.15-.659.271-.994.12-.336.239-.605.354-.809.117-.2.27-.43.46-.689.189-.258.434-.525.735-.8a5.43 5.43 0 0 1 1.033-.736 6.715 6.715 0 0 1 1.072-.491c.327-.112.602-.185.826-.22a2.87 2.87 0 0 0 .336-.059z"/></g></g></svg>