<svg xmlns="http://www.w3.org/2000/svg" width="28" height="27" viewBox="0 0 28 27"><g><g><g/><g><path fill="none" stroke="#2ecf9a" stroke-linecap="round" stroke-linejoin="round" stroke-miterlimit="20" stroke-width="2.13" d="M1.25 9.753A2.833 2.833 0 0 1 4.083 6.92h19.834a2.833 2.833 0 0 1 2.833 2.833v12.75a2.833 2.833 0 0 1-2.833 2.834H4.083a2.833 2.833 0 0 1-2.833-2.834z"/></g><g><path fill="none" stroke="#2ecf9a" stroke-linecap="round" stroke-linejoin="round" stroke-miterlimit="20" stroke-width="2.13" d="M8.33 6.917v0-2.834a2.833 2.833 0 0 1 2.833-2.833h5.667a2.833 2.833 0 0 1 2.833 2.833v2.834"/></g><g><path fill="none" stroke="#2ecf9a" stroke-linecap="round" stroke-linejoin="round" stroke-miterlimit="20" stroke-width="2.13" d="M13.998 14.001v.014"/></g><g><path fill="none" stroke="#2ecf9a" stroke-linecap="round" stroke-linejoin="round" stroke-miterlimit="20" stroke-width="2.13" d="M1.25 15.42a28.333 28.333 0 0 0 25.5 0"/></g></g></g></svg>